<?xml version="1.0" encoding="UTF-8" standalone="no"?><!-- Generator: Gravit.io --><svg xmlns="http://www.w3.org/2000/svg" xmlns:xlink="http://www.w3.org/1999/xlink" style="isolation:isolate" viewBox="0 0 31.834 31.8" width="31.834pt" height="31.8pt"><defs><clipPath id="_clipPath_m6phmSvTwy3klssDuH62Mmo6AcLX2bFL"><rect width="31.834" height="31.8"/></clipPath></defs><g clip-path="url(#_clipPath_m6phmSvTwy3klssDuH62Mmo6AcLX2bFL)"><g><path d=" M 21 27 L 14 27 C 13.447 27 13 27.447 13 28 C 13 28.553 13.447 29 14 29 L 11 29 C 7.134 29 4 25.866 4 22 L 4 8 C 4.553 8 5 7.553 5 7 L 5 1 C 5 0.447 4.553 0 4 0 L 1 0 C 0.447 0 0 0.447 0 1 L 0 7 C 0 7.553 0.447 8 1 8 L 1 23 C 1 27.971 5.029 32 10 32 L 18 32 C 18.553 32 19 31.553 19 31 L 19 29 L 21 29 C 21.553 29 22 28.553 22 28 C 22 27.447 21.553 27 21 27 Z " fill="rgb(0,0,0)"/><path d=" M 12 14 L 9.261 14 L 9.471 16.529 L 12 14 Z " fill="rgb(0,0,0)"/><path d=" M 14.302 20 L 16.428 16.457 C 16.97 15.553 17.946 15 19 15 C 20.054 15 21.03 15.553 21.572 16.457 L 23.698 20 L 28.24 20 L 28.739 14 L 16 14 L 10 20 L 14.302 20 L 14.302 20 Z " fill="rgb(0,0,0)"/><path d=" M 9.701 19.299 L 15 14 L 13 14 L 9.548 17.452 L 9.701 19.299 Z " fill="rgb(0,0,0)"/><path d=" M 31.328 11.618 C 30.966 11.224 30.455 11 29.92 11 L 8.08 11 C 7.545 11 7.034 11.224 6.672 11.618 C 6.31 12.012 6.128 12.539 6.173 13.072 L 6.841 21.093 C 6.931 22.171 7.832 23 8.913 23 L 14.917 23 C 15.589 23 16.212 22.647 16.558 22.071 L 19 18 L 21.442 22.071 C 21.788 22.647 22.411 23 23.083 23 L 29.239 23 C 30.234 23 31.063 22.237 31.146 21.245 L 31.827 13.072 C 31.872 12.539 31.69 12.012 31.328 11.618 Z  M 29.16 21 L 23.132 21 L 20.715 16.971 C 20.354 16.369 19.702 16 19 16 C 18.298 16 17.646 16.369 17.285 16.971 L 14.868 21 L 9 21 L 8.913 21 C 8.872 21 8.837 20.968 8.834 20.927 L 8.174 13 L 29.826 13 L 29.16 21 L 29.16 21 Z " fill="rgb(0,0,0)"/></g></g></svg>