<?xml version="1.0" encoding="UTF-8" standalone="no"?><!-- Generator: Gravit.io --><svg xmlns="http://www.w3.org/2000/svg" xmlns:xlink="http://www.w3.org/1999/xlink" style="isolation:isolate" viewBox="0 0 48 48" width="48pt" height="48pt"><defs><clipPath id="_clipPath_1Xzp6LAjOJThoDEo6ajjmzgMgsVKRlQv"><rect width="48" height="48"/></clipPath></defs><g clip-path="url(#_clipPath_1Xzp6LAjOJThoDEo6ajjmzgMgsVKRlQv)"><g><path d=" M 29.216 40.773 L 27.511 42.136 L 25.091 39.11 L 25.091 48 L 36 48 L 36 37.091 L 26.27 37.091 L 29.216 40.773 Z " fill="rgb(0,0,0)"/><path d=" M 7.636 2.182 C 5.832 2.182 4.364 3.65 4.364 5.455 L 4.364 25.091 L 9.818 25.091 L 9.818 14.182 L 12 14.182 L 12 34.909 L 22.909 34.909 L 22.909 22.013 L 15.603 2.182 L 7.636 2.182 Z " fill="rgb(0,0,0)"/><path d=" M 18.784 40.773 L 21.73 37.091 L 12 37.091 L 12 48 L 22.909 48 L 22.909 39.11 L 20.489 42.136 L 18.784 40.773 Z " fill="rgb(0,0,0)"/><path d=" M 29.003 0 L 18.997 0 L 17.629 1.368 L 24 18.662 L 30.371 1.368 L 29.003 0 Z " fill="rgb(0,0,0)"/><path d=" M 40.364 2.182 L 32.397 2.182 L 25.091 22.013 L 25.091 34.909 L 36 34.909 L 36 14.182 L 38.182 14.182 L 38.182 25.091 L 43.636 25.091 L 43.636 5.455 C 43.636 3.65 42.168 2.182 40.364 2.182 Z " fill="rgb(0,0,0)"/></g></g></svg>