<?xml version="1.0" encoding="UTF-8" standalone="no"?><!-- Generator: Gravit.io --><svg xmlns="http://www.w3.org/2000/svg" xmlns:xlink="http://www.w3.org/1999/xlink" style="isolation:isolate" viewBox="0 0 65 65" width="65pt" height="65pt"><defs><clipPath id="_clipPath_snuae4wMTisTzjtw9jzOw6SzXLWI8wWw"><rect width="65" height="65"/></clipPath></defs><g clip-path="url(#_clipPath_snuae4wMTisTzjtw9jzOw6SzXLWI8wWw)"><circle vector-effect="non-scaling-stroke" cx="9.8" cy="17.2" r="4.300000000000001" fill="rgb(0,0,0)"/><path d=" M 44.1 11.3 C 42.4 14.7 38.4 16.1 34.9 14.5 C 31.5 12.8 30.1 8.7 31.7 5.3 C 33.4 1.8 37.5 0.5 40.9 2.1 C 44.3 3.8 45.8 7.9 44.1 11.3 Z " fill="rgb(0,0,0)"/><path d=" M 64.1 16.1 L 59.8 25 C 59 26.6 57.2 27.4 55.4 26.7 L 51.1 24.9 L 55 35.8 C 55.1 35.9 55.1 36.1 55.2 36.2 L 62.9 58.3 C 63.6 60.4 62.5 62.6 60.5 63.3 C 58.6 64 56.3 63 55.5 60.9 L 49 42.6 C 47.1 42.5 42.1 41.5 39.5 41 L 41 46.6 C 41.6 48.7 40.3 50.9 38.2 51.4 C 36 52 33.9 50.7 33.4 48.6 L 30.2 36.8 C 29.9 35.5 30.2 34 31.2 33.1 C 32.1 32.1 33.6 31.7 34.9 32 L 41.6 33.5 L 38.6 25.1 L 22.4 30 C 21 30.4 19.4 29.9 18.5 28.6 L 13.1 30.2 C 13.1 31.5 12.5 32.8 11.5 33.7 C 8.8 36.1 6.7 37.3 5.2 37.3 C 4.8 37.3 4.3 37.2 4 37 C 1.4 35.6 -0.4 29.1 1 26.5 C 1.9 24.9 4.5 24.6 9.1 25.3 C 10.7 25.6 12.1 26.6 12.7 28.1 L 17.9 26.6 C 17.9 25.2 18.8 23.8 20.3 23.3 L 45.2 15.8 C 46 15.6 46.8 15.6 47.5 15.9 L 55 19 L 58 13 C 58.8 11.3 60.9 10.6 62.6 11.4 C 64.2 12.3 65 14.4 64.1 16.1 Z " fill="rgb(0,0,0)"/></g></svg>