<?xml version="1.0" encoding="UTF-8"?>
<?xml-stylesheet type="text/css" href="../css/icons.css" ?>
<svg xmlns="http://www.w3.org/2000/svg" xmlns:xlink="http://www.w3.org/1999/xlink" viewBox="0 0 512 512" width="512pt" height="512pt">
    <g>
        <path d="M 511.872 512 L 511.872 511.979 L 512 511.979 L 512 324.203 C 512 232.341 492.224 161.579 384.832 161.579 C 333.205 161.579 298.56 189.909 284.416 216.768 L 282.923 216.768 L 282.923 170.155 L 181.099 170.155 L 181.099 511.979 L 287.125 511.979 L 287.125 342.72 C 287.125 298.155 295.573 255.061 350.763 255.061 C 405.141 255.061 405.952 305.92 405.952 345.579 L 405.952 512 L 511.872 512 Z"/>
        <path d="M 8.448 170.176 L 114.603 170.176 L 114.603 512 L 8.448 512 L 8.448 170.176 Z"/>
        <path d="M 61.483 0 C 27.541 0 0 27.541 0 61.483 C 0 95.424 27.541 123.541 61.483 123.541 C 95.424 123.541 122.965 95.424 122.965 61.483 C 122.944 27.541 95.403 0 61.483 0 Z"/>
    </g>
</svg>
